<svg width="18" height="16" viewBox="0 0 18 16" fill="none" xmlns="http://www.w3.org/2000/svg">
<path d="M9.01129 8.76769L2.86979 14.9092C2.44531 15.3337 1.75891 15.3337 1.33894 14.9092L0.318364 13.8886C-0.106121 13.4641 -0.106121 12.7777 0.318364 12.3578L4.6716 8.00452L0.318364 3.65129C-0.106121 3.2268 -0.106121 2.5404 0.318364 2.12043L1.33442 1.09083C1.75891 0.66634 2.44531 0.66634 2.86528 1.09083L9.00677 7.23232C9.43578 7.65681 9.43578 8.34321 9.01129 8.76769ZM17.6816 7.23232L11.5401 1.09083C11.1157 0.66634 10.4293 0.66634 10.0093 1.09083L8.98871 2.1114C8.56423 2.53588 8.56423 3.22229 8.98871 3.64226L13.3419 7.99549L8.98871 12.3487C8.56423 12.7732 8.56423 13.4596 8.98871 13.8796L10.0093 14.9002C10.4338 15.3246 11.1202 15.3246 11.5401 14.9002L17.6816 8.75866C18.1061 8.34321 18.1061 7.65681 17.6816 7.23232Z" fill="#F6F9FE"/>
</svg>
