<svg width="19" height="16" viewBox="0 0 19 16" fill="none" xmlns="http://www.w3.org/2000/svg">
<path d="M9.51129 8.76769L3.36979 14.9092C2.94531 15.3337 2.25891 15.3337 1.83894 14.9092L0.818364 13.8886C0.393879 13.4641 0.393879 12.7777 0.818364 12.3578L5.1716 8.00452L0.818364 3.65129C0.393879 3.2268 0.393879 2.5404 0.818364 2.12043L1.83442 1.09083C2.25891 0.66634 2.94531 0.66634 3.36528 1.09083L9.50677 7.23232C9.93578 7.65681 9.93578 8.34321 9.51129 8.76769ZM18.1816 7.23232L12.0401 1.09083C11.6157 0.66634 10.9293 0.66634 10.5093 1.09083L9.48871 2.1114C9.06423 2.53588 9.06423 3.22229 9.48871 3.64226L13.8419 7.99549L9.48871 12.3487C9.06423 12.7732 9.06423 13.4596 9.48871 13.8796L10.5093 14.9002C10.9338 15.3246 11.6202 15.3246 12.0401 14.9002L18.1816 8.75866C18.6061 8.34321 18.6061 7.65681 18.1816 7.23232Z" fill="#3461E2"/>
</svg>
