<svg width="309" height="317" viewBox="0 0 309 317" fill="none" xmlns="http://www.w3.org/2000/svg">
<path d="M117 88.5L119.451 88.0072L119.451 88.0072L117 88.5ZM291.149 0.620747C290.111 -0.289914 288.532 -0.186805 287.621 0.851037L272.781 17.7634C271.87 18.8012 271.973 20.3808 273.011 21.2914C274.049 22.2021 275.629 22.099 276.539 21.0612L289.73 6.02794L304.764 19.2189C305.801 20.1296 307.381 20.0265 308.292 18.9886C309.202 17.9508 309.099 16.3713 308.061 15.4606L291.149 0.620747ZM-134.47 326.948C-131.101 322.2 -124.422 316.345 -115.036 309.478C-105.714 302.658 -93.9595 295.005 -80.6618 286.634C-54.1169 269.923 -21.4616 250.377 9.65174 229.179C40.76 207.984 70.5363 185.001 91.3605 161.302C112.129 137.667 124.437 112.805 119.451 88.0072L114.549 88.9928C119.063 111.445 108.057 134.725 87.6045 158.001C67.2076 181.214 37.8559 203.912 6.83644 225.047C-24.178 246.178 -56.6503 265.609 -83.3255 282.402C-96.6379 290.783 -108.517 298.513 -117.988 305.443C-127.395 312.325 -134.668 318.586 -138.548 324.055L-134.47 326.948ZM119.451 88.0072C117.096 76.2962 118.468 70.2864 121.277 67.3705C124.076 64.4647 129.259 63.6397 137.314 64.9642C145.197 66.2606 154.901 69.4534 165.734 73.3074C176.486 77.1326 188.3 81.5902 200.138 85.2559C211.982 88.9239 224.018 91.8553 235.313 92.6071C246.609 93.359 257.356 91.9443 266.464 86.7233C284.867 76.1746 295.174 51.0432 291.995 2.33707L287.005 2.66274C290.162 51.0303 279.7 73.3733 263.978 82.3854C256.024 86.9447 246.37 88.332 235.645 87.6181C224.92 86.9042 213.314 84.1021 201.617 80.4797C189.912 76.8549 178.283 72.4652 167.41 68.5966C156.617 64.7569 146.513 61.4098 138.125 60.0305C129.909 58.6795 122.356 59.0433 117.676 63.9015C113.006 68.7496 112.154 77.0789 114.549 88.9928L119.451 88.0072Z" fill="#3461E2"/>
</svg>
