<svg width="32" height="37" viewBox="0 0 32 37" fill="none" xmlns="http://www.w3.org/2000/svg">
<path d="M16 18.7143C21.05 18.7143 25.1429 14.6214 25.1429 9.57143C25.1429 4.52143 21.05 0.428574 16 0.428574C10.95 0.428574 6.85714 4.52143 6.85714 9.57143C6.85714 14.6214 10.95 18.7143 16 18.7143ZM22.4 21H21.2071C19.6214 21.7286 17.8571 22.1429 16 22.1429C14.1429 22.1429 12.3857 21.7286 10.7929 21H9.6C4.3 21 0 25.3 0 30.6V33.5714C0 35.4643 1.53571 37 3.42857 37H28.5714C30.4643 37 32 35.4643 32 33.5714V30.6C32 25.3 27.7 21 22.4 21Z" fill="#3461E2"/>
</svg>
