<svg width="60" height="69" viewBox="0 0 60 69" fill="none" xmlns="http://www.w3.org/2000/svg">
<path d="M58.3929 21.4286C59.2768 21.4286 60 20.7054 60 19.8214V14.4643C60 13.5804 59.2768 12.8571 58.3929 12.8571H55.7143V6.42857C55.7143 2.87946 52.8348 0 49.2857 0H6.42857C2.87946 0 0 2.87946 0 6.42857V62.1429C0 65.692 2.87946 68.5714 6.42857 68.5714H49.2857C52.8348 68.5714 55.7143 65.692 55.7143 62.1429V55.7143H58.3929C59.2768 55.7143 60 54.9911 60 54.1071V48.75C60 47.8661 59.2768 47.1429 58.3929 47.1429H55.7143V38.5714H58.3929C59.2768 38.5714 60 37.8482 60 36.9643V31.6071C60 30.7232 59.2768 30 58.3929 30H55.7143V21.4286H58.3929ZM27.8571 17.1429C32.5848 17.1429 36.4286 20.9866 36.4286 25.7143C36.4286 30.442 32.5848 34.2857 27.8571 34.2857C23.1295 34.2857 19.2857 30.442 19.2857 25.7143C19.2857 20.9866 23.1295 17.1429 27.8571 17.1429ZM42.8571 48.8571C42.8571 50.2768 41.5179 51.4286 39.8571 51.4286H15.8571C14.1964 51.4286 12.8571 50.2768 12.8571 48.8571V46.2857C12.8571 42.0268 16.8884 38.5714 21.8571 38.5714H22.5268C24.1741 39.2545 25.9688 39.6429 27.8571 39.6429C29.7455 39.6429 31.5536 39.2545 33.1875 38.5714H33.8571C38.8259 38.5714 42.8571 42.0268 42.8571 46.2857V48.8571Z" fill="#3461E2"/>
</svg>
