<svg width="60" height="69" viewBox="0 0 60 69" fill="none" xmlns="http://www.w3.org/2000/svg">
<path d="M53.5714 0H6.42857C3 0 0 3 0 6.42857V62.1429C0 65.5714 3 68.5714 6.42857 68.5714H53.5714C57 68.5714 60 65.5714 60 62.1429V6.42857C60 3 57 0 53.5714 0ZM17.1429 58.2857C17.1429 59.1429 16.2857 60 15.4286 60H10.2857C9.42857 60 8.57143 59.1429 8.57143 58.2857V53.1429C8.57143 52.2857 9.42857 51.4286 10.2857 51.4286H15.4286C16.2857 51.4286 17.1429 52.2857 17.1429 53.1429V58.2857ZM17.1429 41.1429C17.1429 42 16.2857 42.8571 15.4286 42.8571H10.2857C9.42857 42.8571 8.57143 42 8.57143 41.1429V36C8.57143 35.1429 9.42857 34.2857 10.2857 34.2857H15.4286C16.2857 34.2857 17.1429 35.1429 17.1429 36V41.1429ZM34.2857 58.2857C34.2857 59.1429 33.4286 60 32.5714 60H27.4286C26.5714 60 25.7143 59.1429 25.7143 58.2857V53.1429C25.7143 52.2857 26.5714 51.4286 27.4286 51.4286H32.5714C33.4286 51.4286 34.2857 52.2857 34.2857 53.1429V58.2857ZM34.2857 41.1429C34.2857 42 33.4286 42.8571 32.5714 42.8571H27.4286C26.5714 42.8571 25.7143 42 25.7143 41.1429V36C25.7143 35.1429 26.5714 34.2857 27.4286 34.2857H32.5714C33.4286 34.2857 34.2857 35.1429 34.2857 36V41.1429ZM51.4286 58.2857C51.4286 59.1429 50.5714 60 49.7143 60H44.5714C43.7143 60 42.8571 59.1429 42.8571 58.2857V36C42.8571 35.1429 43.7143 34.2857 44.5714 34.2857H49.7143C50.5714 34.2857 51.4286 35.1429 51.4286 36V58.2857ZM51.4286 24C51.4286 24.8571 50.5714 25.7143 49.7143 25.7143H10.2857C9.42857 25.7143 8.57143 24.8571 8.57143 24V10.2857C8.57143 9.42857 9.42857 8.57143 10.2857 8.57143H49.7143C50.5714 8.57143 51.4286 9.42857 51.4286 10.2857V24Z" fill="#3461E2"/>
</svg>
