<svg width="32" height="37" viewBox="0 0 32 37" fill="none" xmlns="http://www.w3.org/2000/svg">
<path d="M0 33.1429C0 35.0357 1.53571 36.5714 3.42857 36.5714H28.5714C30.4643 36.5714 32 35.0357 32 33.1429V13.7143H0V33.1429ZM4.57143 19.4286C4.57143 18.8 5.08571 18.2857 5.71429 18.2857H12.5714C13.2 18.2857 13.7143 18.8 13.7143 19.4286V26.2857C13.7143 26.9143 13.2 27.4286 12.5714 27.4286H5.71429C5.08571 27.4286 4.57143 26.9143 4.57143 26.2857V19.4286ZM28.5714 4.57143H25.1429V1.14286C25.1429 0.514286 24.6286 0 24 0H21.7143C21.0857 0 20.5714 0.514286 20.5714 1.14286V4.57143H11.4286V1.14286C11.4286 0.514286 10.9143 0 10.2857 0H8C7.37143 0 6.85714 0.514286 6.85714 1.14286V4.57143H3.42857C1.53571 4.57143 0 6.10714 0 8V11.4286H32V8C32 6.10714 30.4643 4.57143 28.5714 4.57143Z" fill="#3461E2"/>
</svg>
