<svg width="51" height="51" viewBox="0 0 51 51" fill="none" xmlns="http://www.w3.org/2000/svg">
<path d="M35.0657 25.7769L49.2801 11.5624C51.0245 9.81805 51.0245 6.98992 49.2801 5.24418L46.121 2.08509C44.3767 0.340776 41.5486 0.340776 39.8029 2.08509L25.5884 16.2996L11.3739 2.08509C9.62957 0.340776 6.80145 0.340776 5.05571 2.08509L1.89662 5.24418C0.152299 6.9885 0.152299 9.81663 1.89662 11.5624L16.1111 25.7769L1.89662 39.9913C0.152299 41.7357 0.152299 44.5638 1.89662 46.3095L5.05571 49.4686C6.80003 51.2129 9.62957 51.2129 11.3739 49.4686L25.5884 35.2541L39.8029 49.4686C41.5472 51.2129 44.3767 51.2129 46.121 49.4686L49.2801 46.3095C51.0245 44.5652 51.0245 41.7371 49.2801 39.9913L35.0657 25.7769Z" fill="#3461E2"/>
</svg>
