<svg width="18" height="18" viewBox="0 0 18 18" fill="none" xmlns="http://www.w3.org/2000/svg">
<path d="M9 0C4.02942 0 0 4.02942 0 9C0 13.9706 4.02942 18 9 18C13.9706 18 18 13.9706 18 9C18 4.02942 13.9706 0 9 0ZM13.2508 12.5838C13.1931 12.6515 11.8073 14.2434 9.2643 14.2434C6.1908 14.2434 4.02093 11.9476 4.02093 8.9607C4.02093 6.01019 6.27108 3.75663 9.2381 3.75663C11.668 3.75663 12.9384 5.1108 12.9913 5.16847C13.0565 5.23948 13.0962 5.3301 13.1044 5.42614C13.1125 5.52217 13.0885 5.61818 13.0362 5.69914L12.2241 6.95678C12.0771 7.18421 11.7605 7.22355 11.5624 7.04007C11.5539 7.0323 10.5996 6.17346 9.3167 6.17346C7.64314 6.17346 6.63427 7.3919 6.63427 8.9345C6.63427 10.3717 7.56018 11.8265 9.32981 11.8265C10.7341 11.8265 11.6988 10.7981 11.7084 10.7877C11.8947 10.5858 12.2186 10.6051 12.3801 10.8259L13.2709 12.0443C13.3287 12.1234 13.3582 12.2196 13.3545 12.3175C13.3509 12.4154 13.3144 12.5092 13.2508 12.5838Z" fill="#F6F9FE"/>
</svg>
