<svg width="41" height="46" viewBox="0 0 41 46" fill="none" xmlns="http://www.w3.org/2000/svg">
<path d="M20.6145 23C26.9665 23 32.1145 17.852 32.1145 11.5C32.1145 5.14805 26.9665 0 20.6145 0C14.2625 0 9.1145 5.14805 9.1145 11.5C9.1145 17.852 14.2625 23 20.6145 23ZM9.83325 38.0938C9.83325 39.2887 10.7946 40.25 11.9895 40.25C13.1844 40.25 14.1458 39.2887 14.1458 38.0938C14.1458 36.8988 13.1844 35.9375 11.9895 35.9375C10.7946 35.9375 9.83325 36.8988 9.83325 38.0938ZM29.2395 25.9289V30.3313C32.5188 30.9961 34.9895 33.907 34.9895 37.375V41.1215C34.9895 41.8043 34.5043 42.3973 33.8305 42.532L30.9375 43.107C30.5512 43.1879 30.1739 42.9363 30.093 42.541L29.8145 41.1305C29.7336 40.7441 29.9852 40.3578 30.3805 40.2859L32.1145 39.9355V37.375C32.1145 31.7328 23.4895 31.5262 23.4895 37.5457V39.9445L25.2235 40.2949C25.6098 40.3758 25.8614 40.7531 25.7895 41.1395L25.511 42.55C25.4301 42.9363 25.0528 43.1879 24.6665 43.116L21.8633 42.7387C21.1536 42.6398 20.6235 42.0379 20.6235 41.3102V37.375C20.6235 33.907 23.0942 31.0051 26.3735 30.3313V26.2703C26.1758 26.3332 25.9782 26.3691 25.7805 26.441C24.1633 27.007 22.4293 27.3215 20.6235 27.3215C18.8176 27.3215 17.0836 27.007 15.4665 26.441C14.8016 26.2074 14.1278 26.0637 13.436 25.9738V33.3051C15.5114 33.925 17.0297 35.8297 17.0297 38.1027C17.0297 40.8789 14.7747 43.134 11.9985 43.134C9.22231 43.134 6.96724 40.8789 6.96724 38.1027C6.96724 35.8297 8.4856 33.925 10.561 33.3051V26.0816C4.84692 27.043 0.489502 31.9664 0.489502 37.95V41.975C0.489502 44.1941 2.29536 46 4.5145 46H36.7145C38.9336 46 40.7395 44.1941 40.7395 41.975V37.95C40.7395 31.4812 35.6364 26.2434 29.2395 25.9289Z" fill="#3461E2"/>
</svg>
