<svg width="48" height="36" viewBox="0 0 48 36" fill="none" xmlns="http://www.w3.org/2000/svg">
<path d="M46.5325 12.0573C46.888 11.7747 47.4167 12.0391 47.4167 12.4857V31.125C47.4167 33.5404 45.457 35.5 43.0417 35.5H5.125C2.70964 35.5 0.75 33.5404 0.75 31.125V12.4948C0.75 12.0391 1.26953 11.7839 1.63411 12.0664C3.67578 13.6523 6.38281 15.6667 15.6797 22.4206C17.6029 23.8242 20.8477 26.7773 24.0833 26.7591C27.3372 26.7865 30.6458 23.7695 32.4961 22.4206C41.793 15.6667 44.4909 13.6432 46.5325 12.0573ZM24.0833 23.8333C26.1979 23.8698 29.2422 21.1719 30.7734 20.0599C42.8685 11.2826 43.7891 10.5169 46.5781 8.32943C47.1068 7.91927 47.4167 7.28125 47.4167 6.60677V4.875C47.4167 2.45964 45.457 0.5 43.0417 0.5H5.125C2.70964 0.5 0.75 2.45964 0.75 4.875V6.60677C0.75 7.28125 1.0599 7.91016 1.58854 8.32943C4.3776 10.5078 5.29818 11.2826 17.3932 20.0599C18.9245 21.1719 21.9687 23.8698 24.0833 23.8333V23.8333Z" fill="#3461E2"/>
</svg>
