<svg width="32" height="22" viewBox="0 0 32 22" fill="none" xmlns="http://www.w3.org/2000/svg">
<path d="M31.8163 13.1004L27.7928 19.9979C27.4797 20.5347 27.0313 20.98 26.4925 21.2895C25.9536 21.5991 25.343 21.7619 24.7216 21.7619H2.50139C1.47233 21.7619 0.831167 20.6456 1.34967 19.7567L5.37322 12.8592C5.68635 12.3225 6.13469 11.8771 6.67356 11.5676C7.21243 11.2581 7.82301 11.0952 8.44445 11.0952H30.6647C31.6937 11.0952 32.3349 12.2115 31.8163 13.1004V13.1004ZM8.44445 9.31746H26.6667V6.6508C26.6667 5.17802 25.4728 3.98413 24 3.98413H15.1111L11.5556 0.428574H2.66667C1.19389 0.428574 0 1.62246 0 3.09524V18.5422L3.83761 11.9635C4.78967 10.3314 6.55495 9.31746 8.44445 9.31746Z" fill="#3461E2"/>
</svg>
