<svg width="67" height="46" viewBox="0 0 67 46" fill="none" xmlns="http://www.w3.org/2000/svg">
<path d="M10.6323 19.7143C14.2568 19.7143 17.2037 16.7674 17.2037 13.1429C17.2037 9.5183 14.2568 6.57143 10.6323 6.57143C7.00774 6.57143 4.06086 9.5183 4.06086 13.1429C4.06086 16.7674 7.00774 19.7143 10.6323 19.7143ZM56.6323 19.7143C60.2568 19.7143 63.2037 16.7674 63.2037 13.1429C63.2037 9.5183 60.2568 6.57143 56.6323 6.57143C53.0077 6.57143 50.0609 9.5183 50.0609 13.1429C50.0609 16.7674 53.0077 19.7143 56.6323 19.7143ZM59.918 23H53.3466C51.5394 23 49.9068 23.729 48.7158 24.9098C52.8537 27.179 55.7903 31.2759 56.4269 36.1429H63.2037C65.0211 36.1429 66.4894 34.6746 66.4894 32.8571V29.5714C66.4894 25.9469 63.5426 23 59.918 23ZM33.6323 23C39.9881 23 45.1323 17.8558 45.1323 11.5C45.1323 5.1442 39.9881 0 33.6323 0C27.2765 0 22.1323 5.1442 22.1323 11.5C22.1323 17.8558 27.2765 23 33.6323 23ZM41.518 26.2857H40.6658C38.5301 27.3125 36.1582 27.9286 33.6323 27.9286C31.1064 27.9286 28.7448 27.3125 26.5988 26.2857H25.7466C19.2162 26.2857 13.918 31.5839 13.918 38.1143V41.0714C13.918 43.7924 16.1256 46 18.8466 46H48.418C51.139 46 53.3466 43.7924 53.3466 41.0714V38.1143C53.3466 31.5839 48.0484 26.2857 41.518 26.2857ZM18.5488 24.9098C17.3577 23.729 15.7251 23 13.918 23H7.34658C3.72202 23 0.775146 25.9469 0.775146 29.5714V32.8571C0.775146 34.6746 2.24345 36.1429 4.06086 36.1429H10.8274C11.4743 31.2759 14.4109 27.179 18.5488 24.9098Z" fill="#3461E2"/>
</svg>
