<svg width="45" height="44" viewBox="0 0 45 44" fill="none" xmlns="http://www.w3.org/2000/svg">
<path d="M41.3571 0H3.63304C1.90446 0 0.5 1.42411 0.5 3.17232V40.8277C0.5 42.5759 1.90446 44 3.63304 44H41.3571C43.0857 44 44.5 42.5759 44.5 40.8277V3.17232C44.5 1.42411 43.0857 0 41.3571 0ZM13.7982 37.7143H7.27679V16.7161H13.808V37.7143H13.7982ZM10.5375 13.8482C8.44554 13.8482 6.75625 12.1491 6.75625 10.067C6.75625 7.98482 8.44554 6.28571 10.5375 6.28571C12.6196 6.28571 14.3187 7.98482 14.3187 10.067C14.3187 12.1589 12.6295 13.8482 10.5375 13.8482ZM38.2437 37.7143H31.7223V27.5C31.7223 25.0643 31.6732 21.9312 28.3339 21.9312C24.9357 21.9312 24.4152 24.583 24.4152 27.3232V37.7143H17.8938V16.7161H24.15V19.5839H24.2384C25.1125 17.9339 27.2437 16.1955 30.4161 16.1955C37.0161 16.1955 38.2437 20.5464 38.2437 26.2036V37.7143Z" fill="#3461E2"/>
</svg>
