<svg width="50" height="66" viewBox="0 0 50 66" fill="none" xmlns="http://www.w3.org/2000/svg">
<path d="M48.6068 13.9697L36.1143 1.46452C35.5401 0.890299 34.7617 0.571289 33.9451 0.571289H33.1667V16.9046H49.5V16.1262C49.5 15.3223 49.181 14.5439 48.6068 13.9697ZM29.0833 17.9254V0.571289H3.5625C1.86536 0.571289 0.5 1.93665 0.5 3.63379V62.8421C0.5 64.5392 1.86536 65.9046 3.5625 65.9046H46.4375C48.1346 65.9046 49.5 64.5392 49.5 62.8421V20.9879H32.1458C30.4615 20.9879 29.0833 19.6098 29.0833 17.9254ZM8.66667 9.75879C8.66667 9.19477 9.12349 8.73795 9.6875 8.73795H19.8958C20.4598 8.73795 20.9167 9.19477 20.9167 9.75879V11.8005C20.9167 12.3645 20.4598 12.8213 19.8958 12.8213H9.6875C9.12349 12.8213 8.66667 12.3645 8.66667 11.8005V9.75879ZM8.66667 19.9671V17.9254C8.66667 17.3614 9.12349 16.9046 9.6875 16.9046H19.8958C20.4598 16.9046 20.9167 17.3614 20.9167 17.9254V19.9671C20.9167 20.5311 20.4598 20.9879 19.8958 20.9879H9.6875C9.12349 20.9879 8.66667 20.5311 8.66667 19.9671ZM27.0417 53.6393V56.7171C27.0417 57.2811 26.5848 57.7379 26.0208 57.7379H23.9792C23.4152 57.7379 22.9583 57.2811 22.9583 56.7171V53.6176C21.5177 53.5436 20.1166 53.0408 18.9554 52.1693C18.4577 51.7954 18.4322 51.0502 18.8827 50.6202L20.382 49.1897C20.7355 48.8529 21.2612 48.8375 21.6746 49.0966C22.1685 49.4054 22.7286 49.5713 23.3105 49.5713H26.8975C27.7269 49.5713 28.4032 48.8159 28.4032 47.8882C28.4032 47.1289 27.9426 46.4603 27.2841 46.2638L21.5419 44.5411C19.1698 43.8291 17.5122 41.5526 17.5122 39.0044C17.5122 35.8755 19.943 33.3336 22.9571 33.2533V30.1754C22.9571 29.6114 23.4139 29.1546 23.9779 29.1546H26.0196C26.5836 29.1546 27.0404 29.6114 27.0404 30.1754V33.2749C28.481 33.349 29.8821 33.8504 31.0433 34.7233C31.541 35.0971 31.5665 35.8423 31.1161 36.2724L29.6167 37.7028C29.2633 38.0397 28.7375 38.055 28.3241 37.796C27.8303 37.4859 27.2701 37.3213 26.6882 37.3213H23.1012C22.2718 37.3213 21.5955 38.0767 21.5955 39.0044C21.5955 39.7636 22.0562 40.4323 22.7146 40.6288L28.4568 42.3514C30.829 43.0635 32.4865 45.3399 32.4865 47.8882C32.4865 51.0183 30.0557 53.5589 27.0417 53.6393Z" fill="#3461E2"/>
</svg>
