<svg width="55" height="46" viewBox="0 0 55 46" fill="none" xmlns="http://www.w3.org/2000/svg">
<path d="M15.1253 0.375797C15.0066 0.256682 14.8656 0.162171 14.7103 0.0976833C14.5549 0.0331957 14.3884 0 14.2203 0C14.0521 0 13.8856 0.0331957 13.7303 0.0976833C13.575 0.162171 13.4339 0.256682 13.3152 0.375797L6.53497 7.11668L4.118 4.76147C3.9993 4.64236 3.85825 4.54784 3.70295 4.48336C3.54764 4.41887 3.38113 4.38567 3.21297 4.38567C3.04481 4.38567 2.8783 4.41887 2.723 4.48336C2.56769 4.54784 2.42664 4.64236 2.30794 4.76147L0.636295 6.43525C0.51718 6.55395 0.422669 6.69499 0.358181 6.8503C0.293694 7.00561 0.260498 7.17211 0.260498 7.34028C0.260498 7.50844 0.293694 7.67495 0.358181 7.83025C0.422669 7.98556 0.51718 8.12661 0.636295 8.24531L5.7034 13.2922C5.95633 13.5326 6.29195 13.6667 6.64091 13.6667C6.98987 13.6667 7.32549 13.5326 7.57841 13.2922L9.23835 11.6291L16.9258 3.94268C17.1653 3.70297 17.3006 3.37848 17.3024 3.03962C17.3042 2.70076 17.1723 2.37486 16.9354 2.13262L15.1253 0.375797ZM15.1253 17.3254C15.0066 17.2063 14.8656 17.1118 14.7103 17.0473C14.5549 16.9828 14.3884 16.9496 14.2203 16.9496C14.0521 16.9496 13.8856 16.9828 13.7303 17.0473C13.575 17.1118 13.4339 17.2063 13.3152 17.3254L6.53497 24.11L4.118 21.7569C3.9993 21.6378 3.85825 21.5433 3.70295 21.4788C3.54764 21.4143 3.38113 21.3811 3.21297 21.3811C3.04481 21.3811 2.8783 21.4143 2.723 21.4788C2.56769 21.5433 2.42664 21.6378 2.30794 21.7569L0.636295 23.4275C0.51718 23.5462 0.422669 23.6872 0.358181 23.8425C0.293694 23.9978 0.260498 24.1643 0.260498 24.3325C0.260498 24.5007 0.293694 24.6672 0.358181 24.8225C0.422669 24.9778 0.51718 25.1188 0.636295 25.2375L5.69063 30.2951C5.94337 30.5354 6.27882 30.6694 6.6276 30.6694C6.97638 30.6694 7.31183 30.5354 7.56457 30.2951L9.23622 28.6245L16.9237 20.9349C17.1623 20.6969 17.2971 20.3742 17.2989 20.0372C17.3007 19.7001 17.1693 19.3761 16.9332 19.1355L15.1253 17.3254ZM7.07479 35.7785C4.25429 35.7785 1.90121 38.0677 1.90121 40.8892C1.90121 43.7108 4.25642 46 7.07479 46C8.43025 46 9.73019 45.4615 10.6886 44.5031C11.6471 43.5446 12.1856 42.2447 12.1856 40.8892C12.1856 39.5338 11.6471 38.2338 10.6886 37.2754C9.73019 36.3169 8.43025 35.7785 7.07479 35.7785ZM53.0716 37.4821H22.4071C21.9553 37.4821 21.5219 37.6615 21.2025 37.981C20.883 38.3005 20.7035 38.7338 20.7035 39.1856V42.5928C20.7035 43.0446 20.883 43.478 21.2025 43.7974C21.5219 44.1169 21.9553 44.2964 22.4071 44.2964H53.0716C53.5235 44.2964 53.9568 44.1169 54.2763 43.7974C54.5958 43.478 54.7752 43.0446 54.7752 42.5928V39.1856C54.7752 38.7338 54.5958 38.3005 54.2763 37.981C53.9568 37.6615 53.5235 37.4821 53.0716 37.4821ZM53.0716 3.41031H22.4071C21.9553 3.41031 21.5219 3.5898 21.2025 3.90928C20.883 4.22877 20.7035 4.66208 20.7035 5.1139V8.52108C20.7035 8.97289 20.883 9.40621 21.2025 9.72569C21.5219 10.0452 21.9553 10.2247 22.4071 10.2247H53.0716C53.5235 10.2247 53.9568 10.0452 54.2763 9.72569C54.5958 9.40621 54.7752 8.97289 54.7752 8.52108V5.1139C54.7752 4.66208 54.5958 4.22877 54.2763 3.90928C53.9568 3.5898 53.5235 3.41031 53.0716 3.41031ZM53.0716 20.4462H22.4071C21.9553 20.4462 21.5219 20.6257 21.2025 20.9452C20.883 21.2646 20.7035 21.698 20.7035 22.1498V25.5569C20.7035 26.0088 20.883 26.4421 21.2025 26.7616C21.5219 27.0811 21.9553 27.2605 22.4071 27.2605H53.0716C53.5235 27.2605 53.9568 27.0811 54.2763 26.7616C54.5958 26.4421 54.7752 26.0088 54.7752 25.5569V22.1498C54.7752 21.698 54.5958 21.2646 54.2763 20.9452C53.9568 20.6257 53.5235 20.4462 53.0716 20.4462Z" fill="#F6F9FE"/>
</svg>
