<svg width="27" height="36" viewBox="0 0 27 36" fill="none" xmlns="http://www.w3.org/2000/svg">
<path d="M11.7761 34.7938C1.84365 20.3947 0 18.9169 0 13.625C0 6.37624 5.87624 0.5 13.125 0.5C20.3738 0.5 26.25 6.37624 26.25 13.625C26.25 18.9169 24.4063 20.3947 14.4739 34.7938C13.8221 35.7354 12.4279 35.7354 11.7761 34.7938ZM13.125 19.0937C16.1453 19.0937 18.5937 16.6453 18.5937 13.625C18.5937 10.6047 16.1453 8.15625 13.125 8.15625C10.1047 8.15625 7.65625 10.6047 7.65625 13.625C7.65625 16.6453 10.1047 19.0937 13.125 19.0937Z" fill="#3461E2"/>
</svg>
