<svg width="40" height="36" viewBox="0 0 40 36" fill="none" xmlns="http://www.w3.org/2000/svg">
<path d="M19.6875 0.5C14.9304 0.5 11.0742 4.35615 11.0742 9.11328C11.0742 12.9592 16.7036 19.9688 18.8604 22.5131C19.2972 23.0285 20.0785 23.0285 20.5146 22.5131C22.6714 19.9688 28.3008 12.9592 28.3008 9.11328C28.3008 4.35615 24.4446 0.5 19.6875 0.5V0.5ZM19.6875 11.9844C18.1016 11.9844 16.8164 10.6992 16.8164 9.11328C16.8164 7.52734 18.1016 6.24219 19.6875 6.24219C21.2734 6.24219 22.5586 7.52734 22.5586 9.11328C22.5586 10.6992 21.2734 11.9844 19.6875 11.9844ZM1.37539 15.2622C0.969458 15.4246 0.621476 15.7048 0.376325 16.0668C0.131174 16.4288 9.72212e-05 16.856 0 17.2932L0 34.4049C0 35.1787 0.781348 35.7078 1.4998 35.4207L10.9375 31.125V15.1918C10.3332 14.0994 9.83896 13.0357 9.48486 12.0186L1.37539 15.2622ZM19.6875 25.0868C18.7257 25.0868 17.8158 24.6644 17.1917 23.9274C15.8478 22.3415 14.4184 20.5354 13.125 18.6829V31.1243L26.25 35.4993V18.6836C24.9566 20.5354 23.5279 22.3422 22.1833 23.9281C21.5592 24.6644 20.6493 25.0868 19.6875 25.0868ZM37.8752 11.5168L28.4375 15.8125V35.5L37.9996 31.6753C38.4056 31.513 38.7536 31.2328 38.9988 30.8708C39.244 30.5087 39.375 30.0816 39.375 29.6443V12.5326C39.375 11.7588 38.5937 11.2297 37.8752 11.5168Z" fill="#3461E2"/>
</svg>
