<svg width="58" height="50" viewBox="0 0 58 50" fill="none" xmlns="http://www.w3.org/2000/svg">
<path d="M1.78571 10.7143H48.2143C49.2009 10.7143 50 9.91518 50 8.92857V1.78571C50 0.799107 49.2009 0 48.2143 0H1.78571C0.799107 0 0 0.799107 0 1.78571V8.92857C0 9.91518 0.799107 10.7143 1.78571 10.7143ZM55.3571 19.6429H8.92857C7.94196 19.6429 7.14286 20.442 7.14286 21.4286V28.5714C7.14286 29.558 7.94196 30.3571 8.92857 30.3571H55.3571C56.3437 30.3571 57.1429 29.558 57.1429 28.5714V21.4286C57.1429 20.442 56.3437 19.6429 55.3571 19.6429ZM48.2143 39.2857H1.78571C0.799107 39.2857 0 40.0848 0 41.0714V48.2143C0 49.2009 0.799107 50 1.78571 50H48.2143C49.2009 50 50 49.2009 50 48.2143V41.0714C50 40.0848 49.2009 39.2857 48.2143 39.2857Z" fill="#3461E2"/>
</svg>
