<svg width="60" height="61" viewBox="0 0 60 61" fill="none" xmlns="http://www.w3.org/2000/svg">
<path d="M17.0706 17.6419C20.9753 13.7372 20.9753 7.40445 17.0706 3.49979C13.1659 -0.404876 6.83316 -0.404876 2.9285 3.49979C-0.976165 7.40445 -0.976165 13.7372 2.9285 17.6419C6.83472 21.5481 13.1659 21.5481 17.0706 17.6419ZM57.0703 43.4995C53.1657 39.5949 46.8329 39.5949 42.9282 43.4995C39.0236 47.4042 39.0236 53.737 42.9282 57.6416C46.8329 61.5463 53.1657 61.5463 57.0703 57.6416C60.9766 53.737 60.9766 47.4058 57.0703 43.4995ZM56.7672 7.33882L53.2329 3.80447C51.2797 1.85136 48.1141 1.85136 46.1626 3.80447L3.23318 46.7339C1.28007 48.687 1.28007 51.8526 3.23318 53.8041L6.76753 57.3385C8.72065 59.2916 11.8863 59.2916 13.8378 57.3385L56.7672 14.4091C58.7203 12.4575 58.7203 9.29194 56.7672 7.33882Z" fill="#3461E2"/>
</svg>
