<svg width="36" height="36" viewBox="0 0 36 36" fill="none" xmlns="http://www.w3.org/2000/svg">
<path d="M34.8769 25.2322L27.2205 21.9509C26.8934 21.8115 26.5299 21.7822 26.1847 21.8672C25.8395 21.9523 25.5312 22.1472 25.3064 22.4226L21.9157 26.5653C16.5943 24.0563 12.3119 19.7738 9.80289 14.4525L13.9455 11.0618C14.2215 10.8373 14.4168 10.5291 14.5019 10.1837C14.587 9.83834 14.5573 9.47464 14.4172 9.14768L11.1359 1.49129C10.9822 1.13883 10.7103 0.851058 10.3671 0.677595C10.0239 0.504133 9.63097 0.455852 9.25601 0.54108L2.14651 2.18173C1.785 2.26521 1.46245 2.46877 1.23152 2.75916C1.0006 3.04956 0.874917 3.40966 0.875 3.78069C0.875 21.3152 15.0872 35.5 32.5943 35.5C32.9655 35.5002 33.3257 35.3746 33.6162 35.1437C33.9068 34.9127 34.1104 34.5901 34.1939 34.2285L35.8346 27.119C35.9193 26.7422 35.87 26.3477 35.6952 26.0033C35.5204 25.6589 35.231 25.3863 34.8769 25.2322V25.2322Z" fill="#3461E2"/>
</svg>
