<svg width="47" height="46" viewBox="0 0 47 46" fill="none" xmlns="http://www.w3.org/2000/svg">
<path d="M23.2605 0C10.5549 0 0.260498 10.2944 0.260498 23C0.260498 35.7056 10.5549 46 23.2605 46C35.9661 46 46.2605 35.7056 46.2605 23C46.2605 10.2944 35.9661 0 23.2605 0ZM30.6799 15.5806C32.3214 15.5806 33.6476 16.9069 33.6476 18.5484C33.6476 20.1899 32.3214 21.5161 30.6799 21.5161C29.0383 21.5161 27.7121 20.1899 27.7121 18.5484C27.7121 16.9069 29.0383 15.5806 30.6799 15.5806ZM15.8411 15.5806C17.4827 15.5806 18.8089 16.9069 18.8089 18.5484C18.8089 20.1899 17.4827 21.5161 15.8411 21.5161C14.1996 21.5161 12.8734 20.1899 12.8734 18.5484C12.8734 16.9069 14.1996 15.5806 15.8411 15.5806ZM33.9073 31.3653C31.2641 34.5371 27.3875 36.3548 23.2605 36.3548C19.1335 36.3548 15.2569 34.5371 12.6137 31.3653C11.3524 29.8536 13.6339 27.9617 14.8952 29.4641C16.9726 31.9589 20.0145 33.3778 23.2605 33.3778C26.5065 33.3778 29.5484 31.9496 31.6258 29.4641C32.8686 27.9617 35.1593 29.8536 33.9073 31.3653Z" fill="#3461E2"/>
</svg>
