<svg width="47" height="46" viewBox="0 0 47 46" fill="none" xmlns="http://www.w3.org/2000/svg">
<path d="M18.0251 18.6875C18.0251 17.1 16.7377 15.8125 15.1501 15.8125H13.7126C10.5367 15.8125 7.96265 18.3865 7.96265 21.5625V25.875C7.96265 29.051 10.5367 31.625 13.7126 31.625H15.1501C16.7377 31.625 18.0251 30.3375 18.0251 28.75V18.6875ZM33.8376 31.625C37.0136 31.625 39.5876 29.051 39.5876 25.875V21.5625C39.5876 18.3865 37.0136 15.8125 33.8376 15.8125H32.4001C30.8126 15.8125 29.5251 17.1 29.5251 18.6875V28.75C29.5251 30.3375 30.8126 31.625 32.4001 31.625H33.8376ZM23.7751 0C10.9437 0 1.18663 10.6761 0.775146 23V24.4375C0.775146 25.2317 1.41843 25.875 2.21265 25.875H3.65015C4.44437 25.875 5.08765 25.2317 5.08765 24.4375V23C5.08765 12.6958 13.471 4.3125 23.7751 4.3125C34.0793 4.3125 42.4626 12.6958 42.4626 23H42.4519C42.4591 23.2183 42.4626 37.8889 42.4626 37.8889C42.4626 39.9868 40.7619 41.6875 38.6641 41.6875H29.5251C29.5251 39.3057 27.5944 37.375 25.2126 37.375H22.3376C19.9559 37.375 18.0251 39.3057 18.0251 41.6875C18.0251 44.0693 19.9559 46 22.3376 46H38.6641C43.1437 46 46.7751 42.3685 46.7751 37.8889V23C46.3637 10.6761 36.6066 0 23.7751 0Z" fill="#3461E2"/>
</svg>
