<svg width="25" height="26" viewBox="0 0 25 26" fill="none" xmlns="http://www.w3.org/2000/svg">
<path d="M9.375 10.6562C9.375 9.79346 8.67529 9.09375 7.8125 9.09375H7.03125C5.30518 9.09375 3.90625 10.4927 3.90625 12.2188V14.5625C3.90625 16.2886 5.30518 17.6875 7.03125 17.6875H7.8125C8.67529 17.6875 9.375 16.9878 9.375 16.125V10.6562ZM17.9688 17.6875C19.6948 17.6875 21.0938 16.2886 21.0938 14.5625V12.2188C21.0938 10.4927 19.6948 9.09375 17.9688 9.09375H17.1875C16.3247 9.09375 15.625 9.79346 15.625 10.6562V16.125C15.625 16.9878 16.3247 17.6875 17.1875 17.6875H17.9688ZM12.5 0.5C5.52637 0.5 0.223633 6.30225 0 13V13.7812C0 14.2129 0.349609 14.5625 0.78125 14.5625H1.5625C1.99414 14.5625 2.34375 14.2129 2.34375 13.7812V13C2.34375 7.3999 6.8999 2.84375 12.5 2.84375C18.1001 2.84375 22.6562 7.3999 22.6562 13H22.6504C22.6543 13.1187 22.6562 21.0918 22.6562 21.0918C22.6562 22.2319 21.7319 23.1562 20.5918 23.1562H15.625C15.625 21.8618 14.5757 20.8125 13.2812 20.8125H11.7188C10.4243 20.8125 9.375 21.8618 9.375 23.1562C9.375 24.4507 10.4243 25.5 11.7188 25.5H20.5918C23.0264 25.5 25 23.5264 25 21.0918V13C24.7764 6.30225 19.4736 0.5 12.5 0.5Z" fill="#F6F9FE"/>
</svg>
