<svg width="32" height="32" viewBox="0 0 32 32" fill="none" xmlns="http://www.w3.org/2000/svg">
<path d="M13.3429 12.15L20.1429 16.0143L13.3429 19.8786V12.15ZM32 3.42857V28.5714C32 30.4643 30.4643 32 28.5714 32H3.42857C1.53571 32 0 30.4643 0 28.5714V3.42857C0 1.53571 1.53571 0 3.42857 0H28.5714C30.4643 0 32 1.53571 32 3.42857ZM29 16.0214C29 16.0214 29 11.7643 28.4571 9.72143C28.1571 8.59286 27.2786 7.70714 26.1571 7.40714C24.1357 6.85714 16 6.85714 16 6.85714C16 6.85714 7.86429 6.85714 5.84286 7.40714C4.72143 7.70714 3.84286 8.59286 3.54286 9.72143C3 11.7571 3 16.0214 3 16.0214C3 16.0214 3 20.2786 3.54286 22.3214C3.84286 23.45 4.72143 24.3 5.84286 24.6C7.86429 25.1429 16 25.1429 16 25.1429C16 25.1429 24.1357 25.1429 26.1571 24.5929C27.2786 24.2929 28.1571 23.4429 28.4571 22.3143C29 20.2786 29 16.0214 29 16.0214Z" fill="#F6F9FE"/>
</svg>
